<?xml version="1.0" encoding="utf-8"?>
<svg viewBox="0 0 512 512" xmlns="http://www.w3.org/2000/svg">
<path d="M107.3 22c-13.8 2.9-23 13.1-24.1 26.7-.2 3.5-.9 6.3-1.3 6.3-.5 0-.9 1.1-.9 2.5s.5 2.5 1.1 2.5c.6 0-.1 2-1.5 4.4-3.3 5.7-3.3 6.6.3 6.6 3.3 0 4.9 1.5 2.6 2.4-.8.3-1.5 1.2-1.5 2 0 1.1.6 1.3 3 .6 1.7-.5 3-.7 3-.4 0 .3-1.1 2.7-2.5 5.5-2 3.9-2.3 5.3-1.5 7 1.8 3.2 14.7 17 18.5 19.7 4.2 3 4.3 4.2 1 14.6-7.1 22.1-3 36.5 16.6 58.4 10.6 11.8 10.3 11.7 16.4 9.7 2.5-.8 5.885 2.358 5.202 8.502-.555 4.987 8.785 23.586 8.9 31.3.07 4.699.598 9.798.298 10.098-.4.4-.2 2.8.4 5.4.6 2.6 1 7.7.8 11.4-.3 8.9 1.1 13.5 5.8 19.8 3.3 4.4 3.8 5.7 3.4 8.9-.3 2.5 0 4.7 1 6.2.8 1.3 1.8 5.4 2.1 9.2.9 9.1 5.6 27.3 9.8 37.7 3.2 7.8 3.4 8.6 1.7 9.2-4.5 1.7-6.5 9.3-4.9 17.8.6 3 1.5 9.9 2 15.3.7 7.6 1.6 11.3 4 16.6 3.1 6.6 3.1 7 1.6 10-1.8 3.4-1 6.4 2.4 8.8 1.5 1.1 1.3 1.9-2.1 9-4.2 8.5-6.9 17.8-6.9 23.1v3.5l-10.2-.7c-12.2-.7-61-2.3-93.3-3-16.9-.3-20.9-.2-15 .5 16.6 1.9 44 3.9 54.8 4.1 10.5.1 10.1.2-5.8.9-19.5.9-25.8 2.2-15.4 3.2 3.5.3 13.6 1 22.4 1.4l16 .7-8.3.8c-4.5.4-9.9 1.6-12 2.5l-3.7 1.7 8.5.7c4.7.4 12.3.8 17 .9l8.5.1-4 1.5c-9.9 3.6-8.5 3.9 35 6.9 25.9 1.8 34.4 3.4 46 9 12.9 6.2 17.4 6.9 43.6 7 19.9 0 22.9-.2 24.5-1.7 1.5-1.3 4.8-1.8 14.2-2.4 6.7-.4 12.5-1 12.7-1.5.6-.9-6.3-2.5-18-4.2-6.7-1-8-1.5-8.3-3.2-.2-1.1-1.8-3.6-3.6-5.5-3.3-3.5-6.6-8.4-6.6-9.6 0-.3 1.5-.4 3.3-.1 1.7.2 4.3-.1 5.6-.6 2.2-1.1 2.3-1.4 1.5-7.7-1.6-11.7-.7-24 3.5-47.7 4.9-27.7 6.9-41 7.2-48.3.2-3 .9-6.7 1.7-8.3.8-1.5 1.2-3.7.9-4.8-.3-1.1 0-3.1.7-4.4.9-1.7 1.1-8.4.9-24.6-.3-23.9-.7-25.7-5.8-28.1-2-.9-2.4-2-3-7.2-1.7-16.7-5.4-31.5-10.1-40.7-2.8-5.6-3.1-11.1-.8-16.4.8-2.1 1.2-4.1.7-4.5-.4-.3-2.8-2.1-5.3-3.9-2.5-1.8-7.7-6.7-11.5-10.8-6.1-6.4-7.7-7.5-11.3-8-3.1-.4-4.8-1.3-6.2-3.3l-2-2.8 3.3-2.4c4.5-3.5 7.6-5 8.7-4.3.5.3 1.8.2 2.7-.4 1.2-.6 2.6-.5 4.7.6 3.3 1.7 9.1 1.3 16.9-1.3 5.5-1.8 12.7-8.1 12.7-11.1 0-1.1.7-2.6 1.6-3.4.8-.7 2.2-2.5 3-4 1.8-3.5 1.9-13.5.1-14.6-.7-.4-2.7-3.8-4.4-7.4-1.9-3.9-4-6.8-5.1-7.1-1.6-.5-1.8-1.3-1.4-6.7.3-4.5 0-6.7-1.2-8.6-2.3-3.5-8.7-6.5-13.9-6.5-3 0-5.6-.8-8.8-2.8-2.4-1.6-7.5-4.5-11.4-6.6-3.8-2.1-7.4-4.2-7.8-4.6-.4-.4.4-2.1 1.9-3.9 1.4-1.8 2.4-3.4 2.2-3.6-.291-.388-38.264-28.651-64.032-30.924-5.003-.441-18.968 4.324-18.968 4.324l-5.3 1.6c-2.9.8-5.7 1.5-6.2 1.5-.4 0-.8-3.5-.9-7.7-.1-9.8-1.3-14.5-4.2-15.8-1.2-.5-2.2-1.4-2.2-2 0-2-4.2-9-7.3-12.3-6.6-6.9-18.4-10.3-28.4-8.2Zm7.1 2c-.6.6-1.9 1.2-3 1.4-4.9 1-8.1 2-10.8 3.3-1.5.8-2.5 1-2.1.4.9-1.6 5.8-4 10.2-5 5.4-1.3 6.9-1.3 5.7-.1Zm13.3 3c5.2 3 8.7 6.8 11.7 12.7 2.9 5.7 1.7 6-1.4.4-1.7-3-3.8-6.3-4.7-7.3-2.6-2.9-8.3-6.1-13.3-7.4-4.5-1.3-4.5-1.3-1-1.3 2.1-.1 5.5 1.1 8.7 2.9ZM97 40.1c0 .5.4.8.9.5.5-.4 1.6-.3 2.5 0 1.2.5 1.4 1 .6 1.9-.8 1-.8 1.5 0 2s.6 1.1-.6 1.9c-.9.7-1.4 1.8-1.1 2.3.4.6-.4 1-1.8 1s-2.5-.3-2.5-.8-.6-.9-1.3-.9c-.9 0-1.2-1-.9-3 .2-1.7.8-3 1.3-3s.9-.7.9-1.5.5-1.5 1-1.5c.6 0 1 .5 1 1.1Zm49.3 7.8c.4 1.6-.4 2-4.7 2.9-3.7.7-5.3.7-5.8-.1-1.4-2.3-.8-3.6 2-4 6.3-.9 8-.7 8.5 1.2Zm2 6.6c.4.8.2 1.7-.3 2-.4.3-1 .1-1.2-.3-.1-.5-1.8-.5-3.5 0-2.8.7-3.3 1.3-3.3 3.9 0 2.4.4 3 1.5 2.5 1.1-.4 1.5.1 1.5 1.7 0 1.8-.2 1.9-1 .7-1.3-2.2-2.8-.3-3.6 4.8l-.7 4.2 4.4-1.9c4.3-1.9 4.4-2.2 5.1-7.7.4-3.1 1-6 1.4-6.3.3-.3.2 2.3-.2 5.9-.4 3.6-1 6.6-1.5 6.8-.4.2-.5 1.1-.2 2 .3 1.2.2 1.3-.4.4-1.3-1.7-7.3.4-7.3 2.6 0 1.2-.3 1.3-.8.5s-2.9-.5-9.1 1.3c-4.6 1.3-9.3 2.4-10.5 2.4-1.3 0-2.5.3-2.9.6-.3.3-2.9.8-5.8 1-2.8.2-5.5.7-6 1-.5.3-.7 2.4-.4 4.7l.5 4.2-1.1-4.3c-1.2-4.8-.9-4.7-10.7-2.8-5.3 1-7.2 1.1-6.9.2.2-.6 1.7-1.1 3.3-1.2 1.6 0 6.4-.6 10.6-1.4 6.5-1.2 7.8-1.7 8-3.4.3-2.3 3.9-2.9 4.6-.9.2.8-.5 1.3-1.9 1.3-1.2 0-2 .2-1.7.5.8.8 15.3-1.5 15.6-2.5.2-.5.9-.7 1.6-.4.8.3 2.6-1 4.1-2.8 1.4-1.8 2.2-2.3 1.6-1.1-1.4 2.7-.1 3.6 3.2 2.4 2.1-.8 2.6-1.9 3.7-9 .7-4.4 1-8.7.7-9.6-.5-1 .2-1.7 2.1-2.1 1.5-.3 3.2-.7 3.7-.9 2.2-.7 3.3-.4 3.8 1ZM119 56.6c-11.1 2-15.4 2.5-14.8 1.9.9-1 19.2-4.2 20.3-3.6.6.3-1.9 1.1-5.5 1.7Zm11-.1c-3.8 4.5-21.1 9.4-39.2 11.1-6.6.6-7.8.4-7.8-.8 0-1.2 2-1.9 8.3-2.8 14.7-2.1 31.4-5.8 35.4-7.8 4.1-2.2 5.3-2.1 3.3.3Zm39.6 10.6c-8.1 4.6-9.1 4.9-11.7 3.8-1.6-.6-2.9-1.4-2.9-1.8 0-.4 1.9-1.2 4.3-1.8 2.3-.6 6.7-2 9.7-3.2 9.5-3.5 9.7-2.3.6 3Zm30 .1c4.4 1.9 15.7 8.3 25.3 14.3l17.3 10.8-10.5 10.5-10.5 10.4-6.3-3.2c-12-6-14.3-8.6-15.4-17.2-.3-2.3-1-4.7-1.5-5.3-.5-.7-.7-1.5-.4-1.8.4-.3-.1-1.3-1-2.2-2-2-2-2 0 6.6.9 3.9 1.4 7.2 1.2 7.4-.2.3-1.9-3.2-3.7-7.6-1.8-4.4-3.5-7.8-3.7-7.6-.3.2.5 2.6 1.6 5.2l2 4.7L182.3 81c-6.5-6.2-11.9-11.5-12.1-11.9-.1-.4 1.9-2 4.5-3.5 6.5-3.7 13.9-3.2 24.9 1.6Zm-57.9 2c-.3.8-.6.5-.6-.6-.1-1.1.2-1.7.5-1.3.3.3.4 1.2.1 1.9ZM182 82.7c7.3 7 12.7 12.9 12.1 13.1-1.5.5-10.8-4.3-15.6-8-2.9-2.3-3.5-2.6-2-.8 1.1 1.3 4.9 4.2 8.5 6.5 9.7 6.4 16.4 13.9 18.6 21.1 2.4 7.9 2.4 24.1 0 34.7-1 4.3-1.6 8-1.3 8.3.7.8 2.8-8.4 4.1-18.1l1.2-9 1.7 6c1.7 6.2 1.6 4.7-.9-8.9-1.4-8.1-1.2-10.9.5-6.3.5 1.4 3 6.9 5.5 12.4 2.5 5.4 5 11.8 5.5 14.3 1.2 5 1.4 15.6.5 21.2-.6 3.5-.8 3.7-5.7 4.3-2.8.4-8.9 1.8-13.6 3.1-4.8 1.3-8.9 2.4-9.2 2.4-.4 0-1.9-1.6-3.4-3.5-1.8-2.5-3.3-6.4-4.5-12.3-1-4.8-2.6-10.3-3.5-12.2-1.1-2.3-1.4-2.7-1-1 .3 1.4 1.4 6.3 2.5 10.9l1.9 8.3-2.9-2.7c-2.3-2.2-3-4-3.5-8.4-.8-7.3-4-18.1-6-20.6l-1.7-2 .8 2c2.9 8.1 4.2 12.7 4.8 17 .5 4.7.5 4.9-1 3-.9-1.1-2-3.2-2.6-4.7-.7-1.9-2.6-3.5-6.7-5.3-4.6-2.1-6.2-3.6-8.1-7-2.2-3.9-4-5-4-2.4 0 .6.4.8.9.5.7-.5 3.1 4.2 3.1 6 0 1.4-2 0-2.1-1.4-.1-1.6-.2-1.6-.6.1-.8 2.9-2.3.8-2.3-3.2s-5.5-13.8-7.5-13.4c-.5.1-1.6-.9-2.3-2.3-.8-1.4-1.6-2.3-1.9-2-.3.3.6 2.5 2.1 5 1.4 2.4 2.6 4.6 2.6 4.9 0 .2-2.6-.9-5.8-2.5-3.2-1.6-9.3-3.5-13.6-4.2-4.2-.8-8-1.6-8.3-1.9-.2-.3-.7-3.2-1-6.5-.8-8.5.6-8.7 8.1-1.3 8.3 8.2 11.5 7.9 14.7-1.2l1.3-3.7h6.6c4.3 0 7.3.5 8.8 1.6 1.2.8 2.7 1.2 3.4.8.7-.4.8-.3.4.5-.6.9 4.8 12.1 5.8 12.1 1.4 0 6.6-2.4 6.6-3 0-.5-1.5-.3-3.4.5l-3.3 1.4-1.7-5.1c-1.7-5.4-2.1-17.4-.7-22.3.4-1.7 2.7-4.9 5-7.1 2.2-2.3 4.1-5.1 4.1-6.2 0-1.2-2.1-3.9-5-6.5l-5-4.5 2.3-1.5c1.2-.9 2.7-1.6 3.4-1.6.6-.1 7.1 5.6 14.3 12.6Zm-21.8-6c6.3 6.3 7.7 6.6 2.6.6l-3.3-3.8 4 3.2c6.7 5.2 8 7 6.4 8.9-.8.9-3 2.7-5.1 4-2.8 1.8-3.9 3.3-4.4 6.1-.7 3.8-.8 3.7-2-2.9-1.3-7.1-5.7-16.3-8.5-18.1-2.4-1.5-1.2-3.7 1.9-3.7 1.9 0 4.4 1.7 8.4 5.7Zm-69 2.2c-.7 4.2-.7 4.3-2.5 2.4-1.7-1.9-1.6-2.1.4-4.7 1.2-1.5 2.3-2.5 2.5-2.3.2.2 0 2.3-.4 4.6Zm52.6.9c-1.9 3.4-3.3 4.5-9.3 6.8-3.8 1.5-9.1 3.6-11.7 4.7l-4.8 1.9-.2 6.7-.2 6.6-.3-6.2-.4-6.1-3.2.9c-9 2.6-2-.9 14.3-7 11.4-4.4 13.1-5.3 12.6-6.8-.3-.8-.1-1.1.4-.8.6.4 1.8-.7 2.7-2.4 1-1.6 1.9-2.8 2.1-2.6.2.2-.7 2.1-2 4.3Zm5 8.2c.1 4.6-.2 5.9-.8 4.3-.5-1.2-1.8-2.4-2.9-2.8-2.8-.9-2.8-5.4.2-9.8l2.2-3.4.6 2.6c.4 1.4.7 5.5.7 9.1Zm7 6c1.1 4.1 2.4 9.9 2.7 12.8l.7 5.3-3.9-2.7c-3.2-2.2-4.5-2.5-8.4-2.1-4.4.6-4.7.5-4.1-1.6.5-2.1.5-2.2-1.5-.4-1.2 1-3.1 4.5-4.3 7.8-1.2 3.3-2.8 6.3-3.7 6.6-.9.4-3.4-1.4-6.9-4.8-5.2-5.1-5.3-5.4-3.2-6.2 3-1.1 6.8-4.7 6.8-6.4 0-1-1.1-.6-3.3 1.1-3.5 2.7-9.7 5.6-11.9 5.6-.7 0 1.4-1.3 4.7-2.9 4.1-1.9 7.9-4.8 11.5-8.7 2.9-3.3 4.3-4.4 3.1-2.7-1.2 1.8-2 3.7-1.7 4.2.3.5 4.3 1.9 8.8 3.1 4.6 1.2 9 2.3 10 2.6 1.3.4 1.6-.2 1.2-3.3-.2-2.1-.5-7.4-.8-11.8-.4-7.1-.3-7.7.9-5.5.7 1.4 2.2 5.9 3.3 10ZM117 84.9c0 .4-2.5 1.2-5.5 1.8-3 .5-5.5.6-5.5.2 0-.4 1.8-1 4-1.4 2.2-.4 4.2-1.1 4.6-1.6.6-1 2.4-.3 2.4 1Zm-25.8 6.7c-1.4 1.1-2.1.8-3.9-1.4l-2.1-2.7 2.1-.6c1.5-.4 2.7 0 3.9 1.5 1.5 1.9 1.5 2.1 0 3.2Zm10.2 3.2c-.5.8-3.2-1.5-6.5-5.3l-3.4-4 5.1 4.5c2.7 2.5 4.9 4.7 4.8 4.8Zm11.1-2.8c-1.1.5-2.7.9-3.5.9-.9 0-.8-.4.5-.9 1.1-.5 2.7-.9 3.5-.9.9 0 .8.4-.5.9ZM96 93.5c1 1.2 1 1.9.1 2.8-1.4 1.4-4.4-.2-4.9-2.7-.4-2.1 3.1-2.2 4.8-.1Zm10.3.2c-.7.3-.9 1.1-.6 1.9.3.7.8 1.2 1.2 1 .4-.3.8.4.8 1.5.2 2.7-.4 2.4-2.2-1.1-2-3.8-1.9-5.1.2-4.3 1 .4 1.2.8.6 1Zm-3.9 4.5c.9 1.2 1.6 3.8 1.6 5.8v3.5l-4.4-4.5c-3.8-4-4.1-4.6-2.7-5.7 2.4-1.8 3.8-1.6 5.5.9Zm47.3 1c-.3.8-.6.5-.6-.6-.1-1.1.2-1.7.5-1.3.3.3.4 1.2.1 1.9Zm94.5 4.9c3.4 1.7 8.3 4.6 11 6.4 2.7 1.9 5.7 3.7 6.8 4 2.8.9 2.5 2.5-.5 2.5-4.2 0-8.8 2.5-12.4 6.5-3.2 3.7-3.3 4.1-2.8 9.7.3 3.2 1.3 7 2.2 8.4.9 1.4 1.5 3 1.3 3.6-.5 1.4-3.1-2.7-4.6-7.1-2.9-8.4-.5-16 6.7-20.8 4.2-2.8 1.9-3.1-2.7-.3-2.4 1.5-3.4 1.7-3.6.8-1.7-6.5-2.2-7.1-5.9-8.2-2.2-.6-3.5-1.4-3.1-1.9.4-.4-.8-.4-2.6-.1l-3.3.7 2.9-3.6c1.6-2.1 3.3-3.7 3.7-3.7.4 0 3.5 1.4 6.9 3.1Zm-131.9 5.6c-.7.2-1.9.2-2.5 0-.7-.3-.2-.5 1.2-.5s1.9.2 1.3.5Zm2 5.5c.3 1.8.9 4.8 1.3 6.5.6 3 .4 3.3-1.8 3.3-2.3 0-7.1 2.9-9.1 5.5-1.7 2.1.6-6.3 3.3-12.3 3.2-6.9 5.4-7.9 6.3-3Zm161.8 1.8c3.6 1.9 5.8 4.4 4.7 5.5-.2.2-2.6-.7-5.3-2-2.6-1.4-5.6-2.5-6.6-2.5-2 0-3.2-1.4-2.2-2.4 1.2-1.2 5.4-.6 9.4 1.4Zm-41 10.5c3.9 2.8 5.2 4.6 7.4 10.4 1.6 3.9 4.3 8.7 6.2 10.6 1.8 1.9 3.3 3.6 3.3 3.9 0 .2-1.5 1.3-3.4 2.4-2.6 1.6-3.4 2.8-4 6.1-1.1 6.8-7.5 8.3-7.6 1.8 0-3.7-5-13.7-13.7-27.7-4.9-8-9.2-15-9.5-15.5-1.2-2.1 16.8 4.7 21.3 8Zm40.1-4.6c3.8 1.9 5.9 2.5 6.2 1.8.2-.7.5.5.5 2.6l.1 3.8-2.8-2.1c-1.5-1.1-5-2.3-7.7-2.6-7.3-.8-12.2 1.2-16.4 6.6l-3.4 4.5.7-4c.8-4.4 3.9-7.7 9-9.3 2.7-.9 2.8-1 .8-1.1-3.2-.1-8.6 2.5-12.2 5.9-3.3 3.1-3.8 2.4-1.6-1.9 4.3-8.2 15.5-10 26.8-4.2Zm-141.4 6.2c3.5 1.2 8.3 3.7 10.8 5.5 2.4 1.9 4.4 3.1 4.4 2.6 0-.4-1.2-2.7-2.5-5.1-3.1-5.4-2.8-6.2.5-1.5 1.4 2.1 2.5 5.3 2.6 7.9l.3 4.3-4.1-2c-2.2-1.1-5.7-2.2-7.7-2.4-2.8-.4-2.3 0 2.3 1.5 7.9 2.7 8.7 3.7 4 5-2.2.6-5 1.1-6.4 1.1-1.4 0-3.2.5-4 1-2.4 1.5 3.6 1.2 10.3-.5 5.5-1.4 5.9-1.4 14.3 1.4 4.7 1.6 9.1 3.4 9.6 3.9.8.8-1.9 5.3-8.4 14.4-5.3 7.3-10.7 14.4-12.1 15.7-2.5 2.3-15.5 7.2-16.9 6.4-.4-.2-4.9-5.2-10-11.1-5.1-5.9-7.7-9.4-5.9-7.9 1.8 1.5 4.7 3.5 6.5 4.4 1.7.9 5.2 3.4 7.8 5.5 2.7 2.3 5.4 3.8 6.5 3.6 1.4-.3.9-1-2.5-3.2-2.3-1.6-4.1-3-3.9-3.2.1-.2 3.3.6 7.1 1.8 5 1.5 7.3 1.8 8.9 1 2.1-.9 2.1-1-.8-1.7-7.3-1.7-21.5-6.8-26.4-9.5-2.9-1.6-5.7-2.7-6.1-2.5-1.3.8-5.9-8-7.6-14.5-2.5-9.7-.5-17.2 5.8-22.5 3.1-2.6 3.7-2.7 10.3-2.2 3.8.4 9.8 1.6 13.3 2.8Zm87.5 9.9c4.2 7.6 8.2 19.4 9.2 26.6l.6 5.1-4.5 1.2c-2.5.6-4.6 1.1-4.8 1.1-.2 0-.1-3.3.3-7.3.9-10.2-.8-20.8-5.6-33.2-1.5-3.8 1.2-.2 4.8 6.5Zm29.3-5.4c-.4 1.5-.2 3.2.5 4 .9 1.1.9 1.8.1 2.6-.9.9-1.2.8-1.2-.6 0-.9-.4-1.5-.8-1.2-.9.6-.7-4.7.3-6.3 1.1-2 1.7-1.2 1.1 1.5Zm25.6.5c1.9 1 3.2 4.4 2.3 5.9-.3.5-2.6 1-5.1 1-3.9 0-4.7-.4-6.4-3.3-3.2-5.2-2.7-6 2.8-5.2 2.6.4 5.5 1.1 6.4 1.6Zm-14.6 4.5c-.3.9-.9 4-1.2 7-.5 3.8-1.1 5.4-2.2 5.4-1.2 0-1.4-.9-.9-4.3.8-5.7 2.4-9.7 3.8-9.7.6 0 .8.7.5 1.6Zm25.3.3c1.3 2.4.4 3.2-2.8 2.4-3.3-.7-3.3-.7-2.5-2.7.8-2.2 4.1-2 5.3.3Zm-20.2 2.4c1 .7.6 1.7-1.3 4.3-3.6 4.6-4.7 4.3-3.9-.9 1.1-6.2 1.4-6.4 5.2-3.4ZM284 145c.8 1.6.6 3-.9 6.5-2 4.5-3.5 5.6-4.4 3.2-.2-.6.5-2.2 1.6-3.5l2-2.2h-3.6c-4 0-4.2-.2-2.7-3.1 1.2-2.2 4-2.5 5.9-.7 1 1.1 1.1 1 .6-.5-1-2.4.2-2.2 1.5.3Zm-11 1.9c-.7 1.4-.7 2.7-.1 3.9.8 1.5.1 2.4-4 5.2-4.8 3.2-5 3.3-6.9 1.5-1.1-1-2-2.1-2-2.6 0-.4 2.2-2.1 4.9-3.8 2.6-1.7 5.6-4 6.6-5.1 2.2-2.4 3.1-1.9 1.5.9Zm17.7-1.3c1.4 3.8-5.6 18.4-8.8 18.4-2.3 0-1.8-3.1 1.2-7.5 2.1-3.1 3.2-6 3.3-8.6 0-3 .5-3.9 1.9-3.9 1 0 2 .7 2.4 1.6ZM293 163c-1.1 2.1-2.7 2.5-4.7 1.2-.8-.5-.3-2.5 2-7.2l3.2-6.5.3 5.2c.2 2.9-.2 6.2-.8 7.3Zm-57.8 1.3c1 3.2.9 4-.3 4.8-2.4 1.5-2.6 1.1-3.2-5.9-.3-3.7-.8-7.6-1.1-8.7-.4-1.1.3-.2 1.4 2 1.1 2.2 2.5 5.7 3.2 7.8Zm42.4-5.7c-.7 2.4-10.5 8.9-11.6 7.8-2.3-2.4-1.3-4.4 4-8.2 4.5-3.2 5.8-3.7 6.9-2.7.7.7 1 2.1.7 3.1Zm-21-1.9c1.7 1.7 1.6 1.8-1.8 2.8-1.9.5-4.3 1.6-5.2 2.4-1.4 1.2-1.6 1-1.6-1.2 0-1.8.8-3.1 2.8-4.1 3.5-1.9 3.7-1.9 5.8.1Zm-81.9 6.7c2.7 2.5 6.4 7.1 8.1 10.4 4.4 8.3 6.7 9.1 15.8 5.7 3.8-1.4 11.4-3.3 16.9-4.1 11.8-1.8 14.9-2.5 23.3-5.8 3.4-1.3 6.2-2 6.2-1.5 0 1-16.2 8.9-23.5 11.5-2.1.8-6 2.8-8.5 4.3-10.4 6.7-17.1 9.5-22.3 9.6-6.9 0-7.3-2.1-.5-2.7 6-.6 20.8-6.6 25.3-10.3l3-2.4-5 .6c-2.7.3-8.5 1.7-12.8 3-4.4 1.3-8.5 2.2-9.3 1.9-.7-.3-1.6-.1-1.9.5-.4.5-1.1.7-1.6.3-.5-.3-.7-1-.4-1.5.3-.5 0-.6-.8-.3s-2-.2-2.7-1.1c-.7-.8-1.7-1.5-2.2-1.5-.6 0-4.8-2.7-9.4-6-7.6-5.6-8.2-6.3-7.4-8.5 1.2-3.2 3.3-6.5 4.1-6.5.4 0 2.9 2 5.6 4.4Zm104 4.4c-1.3 1.6-8.4 5.1-10.4 5.2-2.9 0-1-2.9 4-6.3 4.6-3.1 5.3-3.3 6.4-1.9 1 1.2 1 1.8 0 3ZM256 167c3.7 3.9 5.6 8.8 4.3 10.8-1.7 2.8-3 2.4-3.7-1.2-.4-2-2.2-5.6-4.1-8.1-3.2-4.1-3.3-4.5-1.4-4.5 1.2 0 3.3 1.3 4.9 3Zm-2.4 6.2c.8 1.5 1.4 3.7 1.3 5-.1 1.6-.4 1.2-1.1-1.4-.5-2-2.6-5.6-4.6-8l-3.6-4.3 3.3 3c1.8 1.6 3.9 4.2 4.7 5.7Zm31.8-3.4c-2.4 2.1-2.8 2.2-3.6.8-1.3-2.3 3.1-6 5.1-4.3 1.1.9.8 1.6-1.5 3.5Zm-5 3.4c-1.6 2.6-15.4 7.2-15.4 5.2.1-1.5 14.4-8 15.2-6.9.4.5.4 1.3.2 1.7Zm6.4 0c-2.4 3.6-12 8-18 8.4l-5.3.3 4.7-.9c5.4-.9 12.2-4.1 16.4-7.6 3.6-2.9 4-3 2.2-.2ZM151 184.8c0 1.2-6 8.2-7.1 8.2-1.8 0-.8-2.5 2.3-5.7 3.1-3.2 4.8-4.1 4.8-2.5Zm2.7 5c-.6 5.1-5.1 12.2-7.7 12.2-1.1 0-2-.7-2-1.5 0-1.8 8.1-14.3 9.4-14.4.5-.1.6 1.6.3 3.7Zm12.8 3.3c.8 1.3-2.5 5.1-7.9 9-6.1 4.5-7.2 3.5-3.6-3.6 1.1-2.1 2.3-5.4 2.6-7.2l.6-3.2 3.8 1.9c2.1 1.1 4.2 2.5 4.5 3.1Zm72.6-2.8c-.6.8-.9 1.7-.6 2 .3.4.2.5-.1.2-.4-.2-3.8 1.8-7.8 4.4-3.9 2.6-9.8 6.3-13.1 8.3-6.6 3.8-19.4 9.2-20.1 8.5-1.2-1.2 6.3-5.7 14.4-8.6 6-2.1 12.4-5.4 18.4-9.6 10.2-6.9 10.6-7.1 8.9-5.2Zm3.7 6.1c-.1.1-2.1 1-4.3 2-5.3 2.4-29.5 18.7-29.5 19.9 0 1.5 1.9.4 14-8.3 13.6-9.7 18-11.9 23.9-12 4.2 0 4.8.4 11.5 7.3 3.9 4 9.3 9.1 12 11.3l4.8 4-1.6 5.4c-2.2 7.2-2.1 8.2 1.4 13.6 1.6 2.6 3.6 6.8 4.5 9.3 2 6.2 5.2 22.1 6 30.3.6 6.2.5 6.6-1.2 6.2-1.7-.5-1.8-1.3-1.5-6.9.4-5.7-1.5-21.2-2.4-20.2-.2.2.1 4.1.7 8.6s.8 10.2.4 12.7l-.6 4.4h-4.8c-10.2 0-24.2 6-27.9 12-1.5 2.4-2.9 2.5-8.3.3l-4.2-1.6.6-10.4c.4-8.7.9-11.3 3.1-15.5 1.5-2.8 2.1-4.7 1.4-4.1-.7.5-4 1-7.3 1.1-3.3.1-7.3.4-9 .7l-3 .6 2.9-2.5c3.6-3 17.1-7.6 22.3-7.6 2.8 0 3.4-.3 2.3-1-2.9-1.9-14.2-1.1-20.2 1.4-3.2 1.3-5.8 2-5.8 1.6 0-.4 2.7-3.3 6-6.4 14-13.3 29.4-15.3 44-5.6 4.8 3.2 6.7 3.2 2.9 0-5.6-4.7-13.2-7.5-21.1-7.9-6.9-.3-8.4 0-14.2 2.7-3.5 1.6-8.1 4.6-10.3 6.6-6.7 6-6.2 4.1.7-3.1l6.5-6.6-5 3.4c-2.7 1.9-7.8 6.3-11.2 9.7-3.5 3.5-6.9 6.2-7.7 5.9-1.5-.6-7.7-16.5-10-25.7-1.8-7.2-3.4-11.5-4.1-10.8-1.6 1.6 8.5 31.9 12.7 37.9 1.7 2.5 1.7 3.5.5 16-.8 8.1-1 16.6-.6 21.4.4 4.4 1.2 19.7 1.8 34 .6 14.3 1.3 27.6 1.6 29.6.6 3.3.3 3.9-3.5 7.2-4.5 3.8-9.9 5.7-14.8 4.9-3.7-.5-11.5-7-13.8-11.4-2.6-5-.9-4.2 2.6 1.2 1.8 2.7 3.9 5 4.7 5 1.2 0 1.1-.6-.5-3.3-6.1-10-20.2-52.5-21.4-64.7-.5-4.5-.5-4.5 5.3-8.9s13.8-12.2 10.9-10.6c-.8.5-4.8 3.4-8.8 6.4-5.9 4.4-7.5 5.2-8.3 4-.5-.8-.9-1.9-.9-2.6 0-.6-1.5-3.1-3.4-5.6-5.3-6.9-5.4-7.4-4.4-16.2.7-5.5.7-9.5-.1-12.8-.6-2.7-1.1-7.6-1.1-11v-6.2l16.7-5.9c9.2-3.3 16.2-6.1 15.5-6.4-.6-.2-8.4 2.2-17.3 5.2-8.9 3.1-16.4 5.4-16.6 5.2-.2-.2-.1-1 .2-1.8.9-2.2 6-4.2 22.2-8.7 22.8-6.4 32.3-10.7 51.1-23.3 9-6.1 11.4-7 12.5-5.1.5.8.7 1.5.5 1.7Zm-62.2 5.1c12.1 7.3 12.1 6.2-.5 10.6-8.2 2.9-9.1 2.3-2.5-1.7 7.8-4.7 8.2-5.2 5.1-5.9-2.1-.6-3.9.1-7.9 2.8-8.1 5.2-9.5 5.8-14.9 5.9-8.9.2-9.1-3.1-.6-8.6 3-1.9 6.3-4.8 7.3-6.5 1-1.7 2.2-3.1 2.6-3.1.4 0 5.5 2.9 11.4 6.5ZM153 213c2.9 2.9 3.5 4 2.3 4-3 0-8.3-3.8-8.3-6 0-3 1.5-2.5 6 2Zm-.186 6.204c1.368 1.02 3.751 4.477 4.072 5.283 2.457 6.156-1.469 1.679-3.793-1.781-5.343-7.954-2-4.787-.279-3.502ZM165.5 224c-2.8 1.2-6.5 1.2-6.5 0 0-.6 1.9-1 4.3-.9 3.2 0 3.7.2 2.2.9Zm-8.6 17.2c-.1 3.5.1 9.5.6 13.4.8 7.1 0 15.2-1.3 13.9-.4-.4-1-4.6-1.4-9.3-.4-4.8-1-11-1.3-13.7-.7-5.1.6-10.5 2.5-10.5.6 0 1 2.4.9 6.2Zm80 30.3c-1.1 2.5-2.3 7.7-2.6 11.5-.7 8.2-.7 8.2-8.1-2.4l-5.3-7.5 2.7-1.7c2.6-1.8 10.4-4.2 13.6-4.3 1.5-.1 1.5.3-.3 4.4Zm-2.9 27.2c0 1.4-.7 1-3-1.7-1.7-1.9-3.9-5.1-5-7-1.9-3.1-1.5-2.9 3 1.7 2.7 2.8 5 6 5 7Zm53.3-10.4c1.8.8 3.8 2.1 4.5 2.9.9 1.2.1 1-2.9-.5-3.4-1.7-6-2-13.3-2-9.5.1-15.2 1.6-20.9 5.4l-3.2 2.1 3.4-3.1c1.9-1.7 5.3-3.7 7.5-4.5 5.3-1.9 20.6-2 24.9-.3Zm-69.2 14.2.3 8 .5-7.2.6-7.2 8 10.6c10.5 13.8 10 12.7 7.1 16.6-3.4 4.5-3.3 6 1 9.5 3.4 2.8 3.5 3.2 2.9 7.5-.4 2.7-.3 5.3.5 6.6.8 1.7.6 5.2-1 16-2.4 16.8-2.6 33.1-.4 43.7 2.2 10.5 1.5 29.4-1.6 41.7-2 8.2-2.1 9-.6 11.2.9 1.4 2.1 2.5 2.6 2.5.6 0 1 2 1 4.4 0 5.1-.8 5.6-8.3 5.6-4.3 0-36.9-6-41.7-7.6-.9-.3.6-1.3 3.8-2.4 10.1-3.6 14.2-8.6 17.4-21.6 1.3-4.9 3-9.4 3.9-10.1.9-.7 3.6-4.2 6-8 3.9-5.9 4.4-7.4 4.6-12.8.1-4.1 1.4-9.5 4.2-17.5 4.5-12.7 5-17.8 2.5-25.5-2.6-8.2-3.8-9.9-7.4-11.1-3.9-1.3-4.3-2-6.4-14.4-1.2-6.8-1.6-15.2-1.5-30.9.1-20.5 1.3-25.1 2-7.6Zm55.1-1.1c.5 9.6 1.2 12.1 2.9 11 .7-.4.8-4.2.3-10.5l-.7-9.9h8.3v11.6c0 7.4.4 11.3 1 10.9.6-.3 1-5.2 1-11.1 0-10.5 0-10.5 2.3-9.8 5.5 1.6 7.3 7.2 6.1 19l-.6 6.1-4.2-.9c-2.3-.6-12.4-.8-23.3-.5l-19.3.5v-4.9c0-3.2.8-6.5 2.2-9.2l2.2-4.2.7 4c.4 2.2.8 5.7.8 7.7.1 2 .6 4 1.2 4.4.7.4 1-2.2.8-8.7l-.3-9.3 3.3-2c4-2.3 4.6-1.6 5.5 6.3 1 8.5 1.7 11.1 2.8 11.1.7 0 .9-3.7.6-10.5l-.4-10.5h6.3l.5 9.4Zm-41.5-1.4c4.3 4.8 5.3 5.6 5.8 4.1.3-1 .1-3-.5-4.5-.5-1.5-1-2.9-1-3 0-.2 1.8.5 4 1.6s4 2.2 4 2.5c0 .3-1.1 2.6-2.4 5.2-1.3 2.5-2.7 5.4-3 6.3-.3 1.1-1.1 1.5-2.1 1.2-.9-.4-1.4-.8-1.1-1.1.2-.2-.6-1.5-1.9-2.9-2-2.2-8.5-13.4-8.5-14.8 0-1.5 1.9 0 6.7 5.4Zm10.9 23.5c-.1 9.5-.3 11.2-1.3 9.8-1.6-2.1-1.7-9.5-.2-16.3.6-2.7 1.2-5 1.4-5 .1 0 .2 5.2.1 11.5Zm48.9-2.6c2.1.4 3 1.2 3 2.6 0 1.7-.8 2-5 2.3-6 .4-42.6-1.6-43.3-2.3-1.1-1.1 1.2-2 6.6-2.6 7.6-.8 34.9-.8 38.7 0Zm3.3 9.3c-.3.7-2 1.6-3.9 2.1-4.3 1.2-30.4.2-38.9-1.5l-6.5-1.3 5-.5c9.7-1 44.7 0 44.3 1.2Zm-.4 5.7c1.2 1.9-.8 4.1-4.8 5.2-6.4 1.8-38.1-.3-40.4-2.6-1.5-1.5 2.3-2 13.6-1.8 10.1.2 25.9-.6 30.4-1.6.4 0 .9.3 1.2.8Zm-52.7 8.3c-.2 1.3-.4.3-.4-2.2s.2-3.5.4-2.3c.2 1.3.2 3.3 0 4.5Zm36.6.3c13.2-.1 14.7.1 14.7 1.6 0 1-.8 2.5-1.7 3.5-1.5 1.5-3.5 1.6-17.2 1.1-8.6-.3-17.2-1-19.1-1.5-1.9-.6-4.7-1.3-6.2-1.6-2-.5-2.8-1.3-2.8-2.7 0-2 .3-2.1 8.8-1.2 4.8.4 15.3.8 23.5.8Zm-103.7 11.7c-.1 5.2-.1 5.3 4.4 7.8 2.5 1.4 6.5 4 8.9 5.8 6.3 4.6 11 5.8 16.4 4.3 4.6-1.4 10.1-5.1 13.2-9 6.2-7.8 6.2-7.8 8.3-5.6 1.9 2 5.6 11.4 4.8 12.3-.3.2-1.4-1.6-2.7-4-3.7-7.4-3.5-7.4-11-.4-10.5 9.9-19 11.2-29.2 4.3-2.9-1.9-7.3-4.5-9.8-5.7-5.1-2.6-5.9-3.5-5.9-7.2 0-2.6 1.6-7.8 2.4-7.8.2 0 .3 2.3.2 5.2Zm44.1 2.5c-.2 1.6-.4.5-.4-2.2 0-2.8.2-4 .4-2.8.2 1.3.2 3.5 0 5Zm28-3.5c-1.1 4.6-2.8 27.9-3.6 49.8l-.8 22.5-.1-18c-.1-18.8 1.2-47.7 2.4-53.3.3-1.7 1.1-3.2 1.6-3.2.6 0 .8 1 .5 2.2Zm7.4 27.3c-.6 10.4-1.8 27.5-2.6 37.9-1.5 17.8-1.5 20.9.2 19.3 1.9-1.9 7.3-57.8 7.3-75.3V354h3.5c3.4 0 3.5.1 3.5 4 0 3.4-4.3 47.3-6.9 71-.8 6.8-.2 10.4 1.5 8.8.9-.9 7.4-57.8 8.1-71.1l.6-11.7h3.4c3.2 0 3.3.1 3.3 4.4 0 4.8-4.9 42.6-8 62.3-2.2 13.2-2.5 19.9-1.1 17.3 1.8-3.1 10.1-56.9 11.6-75.8l.7-8.2h5.9l-.7 6.7c-.5 6.5-5.1 34.9-9.4 58.8-1.1 6-2 14.5-2 18.9v7.8l-3.5-3.1c-7.3-6.3-16.4-3.3-22.9 7.6-1.3 2.2 2.6.2 6.7-3.4 4.7-4.1 9.6-4.4 14.8-.9 3.3 2.3 6.9 7.8 6.9 10.5 0 .6.7 1.1 1.5 1.1 1.2 0 1.4-.8.8-4.3-1.7-9.4-.6-25.9 3.5-51.2 3.6-22 6.2-41.8 6.2-47.6 0-1.1.7-1.9 1.6-1.9 1.4 0 1.5 1 .9 7.7-.7 7.5-3.6 25.6-9.1 56.3-2.1 12-2.5 16.4-2 25.5.3 6 .8 12.3 1.2 13.9.7 2.9.7 2.9-3.1 2.3-2.6-.4-5.2-1.9-8-4.7-6.2-6.1-9.6-5.8-26.9 2.6-3.5 1.7-4.8 1-3.7-1.9.4-1.2 1.3-6.5 2-11.7 1.8-15.1 1.9-15.2 1.4-1.3-.4 8.8-.2 13.3.4 13.3.6 0 1.3-1.5 1.7-3.3.9-4.9 3.4-32.6 5.1-56.7 1.7-24 3.4-40 4.3-41.5 1.7-2.7 2.3 10.5 1.3 28Zm-56.1 2.7c0 1.1-1.7 1-4.3-.3-2.6-1.3-11.7-10-11.7-11.1 0-.4 3.6 1.8 8 4.9 4.4 3.1 8 6 8 6.5Zm28.8-6.1c-7.1 12.8-24.9 15.8-37.2 6.4-1.9-1.4-3.7-3.4-4.1-4.3-.3-.9 1.1 0 3.3 2.1 6 5.8 15.7 8.1 24.3 5.7 4.2-1.2 11.4-7.1 13.5-11.1.8-1.6 1.7-2.9 2-2.9.3 0-.5 1.9-1.8 4.1Zm-50.5-.6c.4.8.2 1.7-.3 2-.6.4-1-.3-1-1.4 0-2.5.6-2.7 1.3-.6Zm63.4 6.2c-.2 1.6-.4.3-.4-2.7s.2-4.3.4-2.8c.2 1.6.2 4 0 5.5Zm-10.7 0c-1.1 1.7-1.1 1.7-.6 0 .3-1 .6-2.4.7-3 0-.9.2-.9.5 0 .3.7 0 2-.6 3Zm-44.9.5c1.1 2.1 1.1 2.2-.4.9-1-.7-1.7-1.7-1.7-2.2 0-1.5.9-1 2.1 1.3Zm.2 21c.6 2.1.3 3-1.3 3.8-2 1.1-3-.3-1-1.5 1.8-1.1 1.1-4.1-2.5-10.9-1.9-3.7-3.5-7.5-3.5-8.4 0-1.9 7.4 13.1 8.3 17Zm3.4-6.7 3.5 5-3.7-4c-3.4-3.8-7.5-10.5-7.5-12.2 0-.4 1 .8 2.1 2.7 1.2 1.9 3.7 5.7 5.6 8.5Zm39.3-10.2c0 .2-1 1.2-2.2 2.3l-2.3 1.9 1.9-2.3c1.8-2.1 2.6-2.7 2.6-1.9Zm-7.3 13.3c-.6 6.2-.5 10.5.1 11.8.7 1.5.6 3.1-.3 5.1-1.2 3-1.2 2.9-1.9-2.8-.6-4.8.5-17.6 2-22.5.9-3 .9-.6.1 8.4Zm-4.1-5.7c-.9 1.3-9 2.3-12.2 1.4-2.4-.7-1.7-.9 4.1-1.4 3.9-.3 7.4-.6 7.8-.7.5-.1.6.2.3.7Zm6.5 16.8c-1 1.7-1 1.6-1.1-.3 0-2.3 1.3-4.1 1.8-2.5.2.6-.1 1.8-.7 2.8Zm-10.6 13.7c.6 1.4.5 1.8-.6 1.4-1-.3-1.4-2.5-1.5-8.4l-.1-7.9.7 6.5c.3 3.6 1 7.3 1.5 8.4Zm-26.6-5.1c-1.2 3.1-1.9 6.3-1.5 7.2.8 2.2 10.9 6.5 15.4 6.5 2 0 5.2-.4 7-.9 3.8-1.1 4-.5 1.6 8-2 7.1-6.9 13.1-12.6 15.4-4 1.6-4.3 1.6-5.5-.1-.7-1-1.3-4.1-1.3-7v-5.1l-6-1.2c-3.3-.7-6.2-1.6-6.5-2.1-1.2-1.9 9.7-28.1 11.2-26.7.2.2-.6 2.9-1.8 6Zm-6.5 25.8c1.5 1.2 3.8 4.3 5.1 6.9 1.3 2.6 3 5 3.7 5.3.7.3 0 .6-1.5.6-6 .2-11.7-5.9-11.7-12.3 0-3.1.9-3.3 4.4-.5Zm77.6 8.5c0 .4-.8 1.3-1.7 2-1.6 1.2-1.4 1.3 2.1 1.4 3.3 0 3.7.2 2.5 1.2-.8.7-2.5 2.6-3.9 4.2l-2.5 2.9 4.7-2.7c3.7-2.2 5.1-2.5 6.7-1.7 3 1.6 3.3 1.3 1.5-1.4-1.4-2.2-1.5-2.5-.1-2.5 1.3 0 5.7 4.8 5.7 6.3 0 .2-2 .2-4.5-.1-5.3-.5-12 1.7-16.6 5.5-2.4 2-3.2 2.3-4.4 1.3-.8-.7-1.5-1.7-1.5-2.2 0-2 9.2-14.8 10.6-14.8.8 0 1.4.3 1.4.6Zm5.3 1.1c-.7.2-2.1.2-3 0-1-.3-.4-.5 1.2-.5 1.7 0 2.4.2 1.8.5Zm10.7 12.6c4.5 3.3 7 6.3 7 8.4 0 2-.5 2.3-3.7 2.2-2.1-.1-5.1-.4-6.8-.8-1.8-.4-5-.1-7.7.8-6.5 2-12.3.7-12.3-2.9 0-2.8 6.3-7.7 11.6-9 3.9-1 9.7-.3 11.9 1.3Zm-27.5 7.9c.7.7.2.8-1.5.3-1.4-.4-2.9-1.2-3.5-1.7-.7-.7-.2-.8 1.5-.3 1.4.4 3 1.2 3.5 1.7Zm19.7 5.3c9.4 0 14.7.4 14.5 1-.5 2.3-28.4 1.3-31.4-1.2-1.7-1.4-1.7-1.4.2-.6 1.1.4 8.6.8 16.7.8Z" fill="#FFFFFF"/>
</svg>