<?xml version="1.0" standalone="no"?>
<!DOCTYPE svg PUBLIC "-//W3C//DTD SVG 20010904//EN"
 "http://www.w3.org/TR/2001/REC-SVG-20010904/DTD/svg10.dtd">
<svg version="1.0" xmlns="http://www.w3.org/2000/svg"
 width="512.000000pt" height="512.000000pt" viewBox="0 0 512.000000 512.000000"
 preserveAspectRatio="xMidYMid meet">

<g transform="translate(0.000000,512.000000) scale(0.100000,-0.100000)"
fill="#000000" stroke="none">
<path d="M185 5072 c-86 -62 -186 -201 -184 -256 0 -15 231 -218 789 -695 433
-370 790 -674 792 -675 7 -2 258 292 258 303 0 5 -351 310 -781 678 -547 468
-789 669 -808 671 -17 2 -41 -7 -66 -26z"/>
<path d="M4025 4643 c-234 -32 -446 -225 -500 -455 -19 -81 -19 -206 0 -287
18 -75 72 -182 121 -239 l34 -40 62 20 c63 19 169 21 241 3 60 -16 129 105
149 262 6 45 19 95 29 112 34 57 55 63 272 82 389 35 461 47 455 77 -4 22 -67
53 -121 59 -84 9 -85 10 -123 86 -51 101 -164 212 -267 261 -109 53 -239 74
-352 59z m470 -265 c60 -47 67 -138 10 -138 -54 0 -95 47 -95 108 0 53 38 67
85 30z"/>
<path d="M4583 4063 c-30 -4 -31 -5 -22 -36 5 -18 9 -55 9 -83 0 -55 9 -64 68
-64 20 0 22 4 22 58 0 68 -16 133 -33 130 -7 0 -26 -3 -44 -5z"/>
<path d="M4320 4040 c-36 -3 -75 -12 -86 -18 -19 -10 -52 -68 -43 -76 4 -4
296 -46 317 -46 15 0 16 60 1 113 l-10 37 -57 -1 c-31 -1 -86 -5 -122 -9z"/>
<path d="M4178 3854 c-3 -22 -7 -45 -9 -52 -5 -18 259 -116 276 -102 14 12 52
87 60 120 l6 26 -133 18 c-73 10 -147 20 -164 23 -30 5 -31 3 -36 -33z"/>
<path d="M4562 3816 c-3 -12 -20 -49 -37 -84 -32 -63 -32 -64 -11 -71 67 -26
64 -27 95 41 16 35 32 77 36 94 6 31 5 32 -36 36 -36 3 -43 1 -47 -16z"/>
<path d="M4126 3699 c-21 -48 -69 -97 -103 -105 -14 -4 -49 -1 -79 6 -50 12
-169 8 -183 -6 -10 -10 84 -88 146 -122 182 -97 389 -79 556 47 26 19 54 45
62 57 15 23 45 10 -256 117 l-126 45 -17 -39z"/>
<path d="M1773 3550 c-50 -59 -89 -111 -86 -114 4 -3 25 -6 47 -6 33 -1 50 -8
86 -40 l44 -39 19 37 c9 20 33 53 53 73 l35 36 -38 33 c-25 22 -43 50 -53 80
l-15 48 -92 -108z"/>
<path d="M3409 3507 c-19 -7 -45 -20 -56 -28 -27 -20 -343 -302 -340 -305 1
-1 79 -34 172 -72 l170 -70 275 67 c151 37 278 65 282 62 3 -3 8 -14 10 -25 3
-16 -29 -26 -283 -89 l-287 -71 -593 244 c-326 134 -609 247 -629 252 -71 18
-160 -25 -197 -95 -19 -38 -21 -123 -3 -157 18 -35 51 -70 80 -85 58 -30 1274
-525 1304 -530 24 -5 172 28 546 119 282 70 520 131 530 136 32 17 79 80 90
120 19 72 -23 171 -88 204 -77 40 -863 330 -902 333 -25 2 -61 -3 -81 -10z"/>
<path d="M2066 3039 c69 -92 415 -532 438 -558 54 -59 138 -78 209 -47 28 12
268 217 274 234 2 4 -199 89 -445 189 -523 214 -490 201 -476 182z"/>
<path d="M3870 2674 c-572 -144 -544 -141 -712 -70 l-107 45 -14 -42 c-8 -23
-74 -213 -147 -422 -180 -514 -190 -548 -190 -620 1 -143 111 -261 255 -272
40 -3 240 19 605 66 300 40 556 73 569 74 21 2 27 -4 37 -38 10 -36 14 -40 40
-37 49 5 409 73 414 78 2 3 -35 162 -83 354 -89 360 -92 377 -54 409 20 16 67
17 94 3 11 -6 25 -24 31 -39 16 -39 442 -1748 442 -1772 0 -10 -9 -30 -21 -45
-16 -20 -29 -26 -59 -26 -54 0 -72 28 -105 160 -15 60 -30 110 -33 110 -10 0
-437 -82 -439 -84 -6 -6 78 -309 95 -343 64 -125 233 -181 365 -120 81 37 141
107 161 189 3 15 15 30 26 33 30 10 71 70 77 112 6 49 -435 1809 -463 1846
-44 59 -136 76 -199 37 -50 -31 -69 -76 -63 -151 l5 -64 -491 -64 c-270 -35
-505 -66 -522 -68 -27 -5 -32 -2 -36 20 -6 31 -43 23 377 77 176 23 323 45
327 48 7 7 338 730 338 738 0 8 -26 1 -520 -122z"/>
<path d="M3270 1269 c-113 -15 -221 -28 -240 -29 -63 -1 -62 6 -35 -245 14
-127 27 -247 30 -267 5 -38 5 -38 -30 -38 -43 0 -43 13 -2 -245 l33 -200 417
-5 c412 -5 417 -5 438 -27 32 -31 30 -80 -5 -110 l-27 -23 -895 0 -896 0 -29
29 c-35 36 -37 61 -5 98 23 27 29 28 125 31 78 3 101 7 101 18 0 16 -57 378
-65 412 -5 20 -11 22 -78 22 -41 0 -96 -7 -125 -15 -222 -66 -272 -362 -85
-500 25 -18 43 -41 47 -58 8 -40 55 -83 104 -96 29 -8 305 -11 929 -9 833 3
890 4 921 21 94 52 96 203 3 252 -22 11 -62 15 -155 15 l-125 0 5 68 c4 45 -9
204 -40 484 -25 230 -46 425 -46 433 0 20 -22 19 -270 -16z"/>
<path d="M4425 1258 c-115 -22 -211 -41 -212 -42 -1 -1 31 -130 71 -286 64
-251 75 -285 92 -283 63 5 424 78 424 85 0 7 -103 423 -131 531 -5 20 -15 37
-22 36 -7 0 -106 -19 -222 -41z"/>
<path d="M2325 668 c2 -13 19 -114 36 -225 l32 -203 249 0 c233 0 249 1 244
18 -2 9 -19 110 -37 225 l-33 207 -248 0 -248 0 5 -22z"/>
</g>
</svg>
