<?xml version="1.0" standalone="no"?>
<!DOCTYPE svg PUBLIC "-//W3C//DTD SVG 20010904//EN"
 "http://www.w3.org/TR/2001/REC-SVG-20010904/DTD/svg10.dtd">
<svg version="1.0" xmlns="http://www.w3.org/2000/svg"
 width="512.000000pt" height="512.000000pt" viewBox="0 0 512.000000 512.000000"
 preserveAspectRatio="xMidYMid meet">
<metadata>
Created by potrace 1.16, written by Peter Selinger 2001-2019
</metadata>
<g transform="translate(0.000000,512.000000) scale(0.100000,-0.100000)"
fill="#FFFFFF" stroke="none">
<path d="M1923 4900 c-138 -29 -230 -131 -241 -267 -2 -35 -9 -63 -13 -63 -5
0 -9 -11 -9 -25 0 -14 5 -25 11 -25 6 0 -1 -20 -15 -44 -33 -57 -33 -66 3 -66
33 0 49 -15 26 -24 -8 -3 -15 -12 -15 -20 0 -11 6 -13 30 -6 17 5 30 7 30 4 0
-3 -11 -27 -25 -55 -20 -39 -23 -53 -15 -70 18 -32 147 -170 185 -197 42 -30
43 -42 10 -146 -71 -221 -30 -365 166 -584 106 -118 103 -117 164 -97 25 8 51
-33 61 -94 4 -26 14 -46 26 -52 29 -15 12 -29 -36 -29 -27 0 -52 -7 -67 -19
-23 -18 -100 -54 -104 -49 -1 2 -11 19 -22 39 l-20 36 28 37 c15 21 25 44 22
52 -9 23 -51 29 -73 9 -22 -20 -1 -36 -235 175 -344 310 -551 478 -746 606
-206 136 -215 137 -299 56 -75 -73 -72 -83 58 -183 146 -113 341 -274 632
-524 135 -115 275 -235 312 -265 53 -43 63 -56 48 -58 -29 -5 -50 -41 -50 -84
0 -42 24 -74 65 -84 17 -4 25 -13 25 -29 0 -23 28 -55 48 -55 7 0 12 -6 12
-14 0 -28 50 -74 99 -90 42 -13 55 -14 99 -2 32 8 56 9 67 4 23 -13 65 16 65
46 0 15 12 30 37 47 60 38 86 85 79 139 -5 39 -14 52 -71 103 -36 32 -65 63
-65 68 0 19 23 8 65 -32 24 -23 54 -49 67 -58 21 -15 23 -23 23 -103 0 -47 -3
-89 -6 -92 -4 -4 -2 -28 4 -54 6 -26 10 -77 8 -114 -3 -89 11 -135 58 -198 33
-44 38 -57 34 -89 -3 -25 0 -47 10 -62 8 -13 18 -54 21 -92 9 -91 56 -273 98
-377 32 -78 34 -86 17 -92 -45 -17 -65 -93 -49 -178 6 -30 15 -99 20 -153 7
-76 16 -113 40 -166 31 -66 31 -70 16 -100 -18 -34 -10 -64 24 -88 15 -11 13
-19 -21 -90 -42 -85 -69 -178 -69 -231 l0 -35 -102 7 c-122 7 -610 23 -933 30
-169 3 -209 2 -150 -5 166 -19 440 -39 548 -41 105 -1 101 -2 -58 -9 -195 -9
-258 -22 -154 -32 35 -3 136 -10 224 -14 l160 -7 -83 -8 c-45 -4 -99 -16 -120
-25 l-37 -17 85 -7 c47 -4 123 -8 170 -9 l85 -1 -40 -15 c-99 -36 -85 -39 350
-69 259 -18 344 -34 460 -90 129 -62 174 -69 436 -70 199 0 229 2 245 17 15
13 48 18 142 24 67 4 125 10 127 15 6 9 -63 25 -180 42 -67 10 -80 15 -83 32
-2 11 -18 36 -36 55 -33 35 -66 84 -66 96 0 3 15 4 33 1 17 -2 43 1 56 6 22
11 23 14 15 77 -16 117 -7 240 35 477 49 277 69 410 72 483 2 30 9 67 17 83 8
15 12 37 9 48 -3 11 0 31 7 44 9 17 11 84 9 246 -3 239 -7 257 -58 281 -20 9
-24 20 -30 72 -17 167 -54 315 -101 407 -28 56 -31 111 -8 164 8 21 12 41 7
45 -4 3 -28 21 -53 39 -25 18 -77 67 -115 108 -61 64 -77 75 -113 80 -31 4
-48 13 -62 33 l-20 28 33 24 c45 35 76 50 87 43 5 -3 18 -2 27 4 12 6 26 5 47
-6 33 -17 91 -13 169 13 55 18 127 81 127 111 0 11 7 26 16 34 8 7 22 25 30
40 18 35 19 135 1 146 -7 4 -27 38 -44 74 -19 39 -40 68 -51 71 -16 5 -18 13
-14 67 3 45 0 67 -12 86 -23 35 -87 65 -139 65 -30 0 -56 8 -88 28 -24 16 -75
45 -114 66 -38 21 -74 42 -78 46 -4 4 4 21 19 39 14 18 24 34 22 36 -3 4 -322
204 -386 242 -11 6 -10 16 4 48 20 48 22 145 4 200 -24 73 -65 121 -132 154
-176 88 -368 -31 -368 -228 0 -51 6 -75 24 -108 l24 -42 -53 -16 c-29 -8 -57
-15 -62 -15 -4 0 -8 35 -9 77 -1 98 -13 145 -42 158 -12 5 -22 14 -22 20 0 20
-42 90 -73 123 -66 69 -184 103 -284 82z m71 -20 c-6 -6 -19 -12 -30 -14 -49
-10 -81 -20 -108 -33 -15 -8 -25 -10 -21 -4 9 16 58 40 102 50 54 13 69 13 57
1z m133 -30 c52 -30 87 -68 117 -127 29 -57 17 -60 -14 -4 -17 30 -38 63 -47
73 -26 29 -83 61 -133 74 -45 13 -45 13 -10 13 21 1 55 -11 87 -29z m-307
-131 c0 -5 4 -8 9 -5 5 4 16 3 25 0 12 -5 14 -10 6 -19 -8 -10 -8 -15 0 -20 8
-5 6 -11 -6 -19 -9 -7 -14 -18 -11 -23 4 -6 -4 -10 -18 -10 -14 0 -25 3 -25 8
0 5 -6 9 -13 9 -9 0 -12 10 -9 30 2 17 8 30 13 30 5 0 9 7 9 15 0 8 5 15 10
15 6 0 10 -5 10 -11z m984 -8 c21 -23 18 -49 -6 -64 -25 -16 -68 7 -68 36 0
46 43 62 74 28z m-491 -70 c4 -16 -4 -20 -47 -29 -37 -7 -53 -7 -58 1 -14 23
-8 36 20 40 63 9 80 7 85 -12z m20 -66 c4 -8 2 -17 -3 -20 -4 -3 -10 -1 -12 3
-1 5 -18 5 -35 0 -28 -7 -33 -13 -33 -39 0 -24 4 -30 15 -25 11 4 15 -1 15
-17 0 -18 -2 -19 -10 -7 -13 22 -28 3 -36 -48 l-7 -42 44 19 c43 19 44 22 51
77 4 31 10 60 14 63 3 3 2 -23 -2 -59 -4 -36 -10 -66 -15 -68 -4 -2 -5 -11 -2
-20 3 -12 2 -13 -4 -4 -13 17 -73 -4 -73 -26 0 -12 -3 -13 -8 -5 -5 8 -29 5
-91 -13 -46 -13 -93 -24 -105 -24 -13 0 -25 -3 -29 -6 -3 -3 -29 -8 -58 -10
-28 -2 -55 -7 -60 -10 -5 -3 -7 -24 -4 -47 l5 -42 -11 43 c-12 48 -9 47 -107
28 -53 -10 -72 -11 -69 -2 2 6 17 11 33 12 16 0 64 6 106 14 65 12 78 17 80
34 3 23 39 29 46 9 2 -8 -5 -13 -19 -13 -12 0 -20 -2 -17 -5 8 -8 153 15 156
25 2 5 9 7 16 4 8 -3 26 10 41 28 14 18 22 23 16 11 -14 -27 -1 -36 32 -24 21
8 26 19 37 90 7 44 10 87 7 96 -5 10 2 17 21 21 15 3 32 7 37 9 22 7 33 4 38
-10z m-293 -21 c-111 -20 -154 -25 -148 -19 9 10 192 42 203 36 6 -3 -19 -11
-55 -17z m110 1 c-38 -45 -211 -94 -392 -111 -66 -6 -78 -4 -78 8 0 12 20 19
83 28 147 21 314 58 354 78 41 22 53 21 33 -3z m396 -106 c-81 -46 -91 -49
-117 -38 -16 6 -29 14 -29 18 0 4 19 12 43 18 23 6 67 20 97 32 95 35 97 23 6
-30z m300 -1 c44 -19 157 -83 253 -143 l173 -108 -105 -105 -105 -104 -63 32
c-120 60 -143 86 -154 172 -3 23 -10 47 -15 53 -5 7 -7 15 -4 18 4 3 -1 13
-10 22 -20 20 -20 20 0 -66 9 -39 14 -72 12 -74 -2 -3 -19 32 -37 76 -18 44
-35 78 -37 76 -3 -2 5 -26 16 -52 l20 -47 -117 112 c-65 62 -119 115 -121 119
-1 4 19 20 45 35 65 37 139 32 249 -16z m-579 -20 c-3 -8 -6 -5 -6 6 -1 11 2
17 5 13 3 -3 4 -12 1 -19z m403 -135 c73 -70 127 -129 121 -131 -15 -5 -108
43 -156 80 -29 23 -35 26 -20 8 11 -13 49 -42 85 -65 97 -64 164 -139 186
-211 24 -79 24 -241 0 -347 -10 -43 -16 -80 -13 -83 7 -8 28 84 41 181 l12 90
17 -60 c17 -62 16 -47 -9 89 -14 81 -12 109 5 63 5 -14 30 -69 55 -124 25 -54
50 -118 55 -143 12 -50 14 -156 5 -212 -6 -35 -8 -37 -57 -43 -28 -4 -89 -18
-136 -31 -48 -13 -89 -24 -92 -24 -4 0 -19 16 -34 35 -18 25 -33 64 -45 123
-10 48 -26 103 -35 122 -11 23 -14 27 -10 10 3 -14 14 -63 25 -109 l19 -83
-29 27 c-23 22 -30 40 -35 84 -8 73 -40 181 -60 206 l-17 20 8 -20 c29 -81 42
-127 48 -170 5 -47 5 -49 -10 -30 -9 11 -20 32 -26 47 -7 19 -26 35 -67 53
-46 21 -62 36 -81 70 -22 39 -40 50 -40 24 0 -6 4 -8 9 -5 7 5 31 -42 31 -60
0 -14 -20 0 -21 14 -1 16 -2 16 -6 -1 -8 -29 -23 -8 -23 32 0 40 -55 138 -75
134 -5 -1 -16 9 -23 23 -8 14 -16 23 -19 20 -3 -3 6 -25 21 -50 14 -24 26 -46
26 -49 0 -2 -26 9 -58 25 -32 16 -93 35 -136 42 -42 8 -80 16 -83 19 -2 3 -7
32 -10 65 -8 85 6 87 81 13 83 -82 115 -79 147 12 l13 37 66 0 c43 0 73 -5 88
-16 12 -8 27 -12 34 -8 7 4 8 3 4 -5 -6 -9 48 -121 58 -121 14 0 66 24 66 30
0 5 -15 3 -34 -5 l-33 -14 -17 51 c-17 54 -21 174 -7 223 4 17 27 49 50 71 22
23 41 51 41 62 0 12 -21 39 -50 65 l-50 45 23 15 c12 9 27 16 34 16 6 1 71
-56 143 -126z m-218 60 c63 -63 77 -66 26 -6 l-33 38 40 -32 c67 -52 80 -70
64 -89 -8 -9 -30 -27 -51 -40 -28 -18 -39 -33 -44 -61 -7 -38 -8 -37 -20 29
-13 71 -57 163 -85 181 -24 15 -12 37 19 37 19 0 44 -17 84 -57z m-690 -22
c-7 -42 -7 -43 -25 -24 -17 19 -16 21 4 47 12 15 23 25 25 23 2 -2 0 -23 -4
-46z m526 -9 c-19 -34 -33 -45 -93 -68 -38 -15 -91 -36 -117 -47 l-48 -19 -2
-67 -2 -66 -3 62 -4 61 -32 -9 c-90 -26 -20 9 143 70 114 44 131 53 126 68 -3
8 -1 11 4 8 6 -4 18 7 27 24 10 16 19 28 21 26 2 -2 -7 -21 -20 -43z m50 -82
c1 -46 -2 -59 -8 -43 -5 12 -18 24 -29 28 -28 9 -28 54 2 98 l22 34 6 -26 c4
-14 7 -55 7 -91z m70 -60 c11 -41 24 -99 27 -128 l7 -53 -39 27 c-32 22 -45
25 -84 21 -44 -6 -47 -5 -41 16 5 21 5 22 -15 4 -12 -10 -31 -45 -43 -78 -12
-33 -28 -63 -37 -66 -9 -4 -34 14 -69 48 -52 51 -53 54 -32 62 30 11 68 47 68
64 0 10 -11 6 -33 -11 -35 -27 -97 -56 -119 -56 -7 0 14 13 47 29 41 19 79 48
115 87 29 33 43 44 31 27 -12 -18 -20 -37 -17 -42 3 -5 43 -19 88 -31 46 -12
90 -23 100 -26 13 -4 16 2 12 33 -2 21 -5 74 -8 118 -4 71 -3 77 9 55 7 -14
22 -59 33 -100z m-388 91 c0 -4 -25 -12 -55 -18 -30 -5 -55 -6 -55 -2 0 4 18
10 40 14 22 4 42 11 46 16 6 10 24 3 24 -10z m-258 -67 c-14 -11 -21 -8 -39
14 l-21 27 21 6 c15 4 27 0 39 -15 15 -19 15 -21 0 -32z m102 -32 c-5 -8 -32
15 -65 53 l-34 40 51 -45 c27 -25 49 -47 48 -48z m111 28 c-11 -5 -27 -9 -35
-9 -9 0 -8 4 5 9 11 5 27 9 35 9 9 0 8 -4 -5 -9z m-165 -15 c10 -12 10 -19 1
-28 -14 -14 -44 2 -49 27 -4 21 31 22 48 1z m103 -2 c-7 -3 -9 -11 -6 -19 3
-7 8 -12 12 -10 4 3 8 -4 8 -15 2 -27 -4 -24 -22 11 -20 38 -19 51 2 43 10 -4
12 -8 6 -10z m-39 -45 c9 -12 16 -38 16 -58 l0 -35 -44 45 c-38 40 -41 46 -27
57 24 18 38 16 55 -9z m473 -10 c-3 -8 -6 -5 -6 6 -1 11 2 17 5 13 3 -3 4 -12
1 -19z m945 -49 c34 -17 83 -46 110 -64 27 -19 57 -37 68 -40 28 -9 25 -25 -5
-25 -42 0 -88 -25 -124 -65 -32 -37 -33 -41 -28 -97 3 -32 13 -70 22 -84 9
-14 15 -30 13 -36 -5 -14 -31 27 -46 71 -29 84 -5 160 67 208 42 28 19 31 -27
3 -24 -15 -34 -17 -36 -8 -17 65 -22 71 -59 82 -22 6 -35 14 -31 19 4 4 -8 4
-26 1 l-33 -7 29 36 c16 21 33 37 37 37 4 0 35 -14 69 -31z m-1319 -56 c-7 -2
-19 -2 -25 0 -7 3 -2 5 12 5 14 0 19 -2 13 -5z m-994 -75 c217 -135 368 -256
776 -619 238 -212 251 -224 235 -234 -12 -7 -71 42 -238 199 -57 53 -116 103
-132 111 -26 13 -30 13 -51 -4 l-24 -19 29 -61 c28 -57 109 -145 259 -280 21
-18 35 -36 33 -39 -3 -3 -14 2 -24 11 -10 10 -22 14 -26 10 -4 -5 -6 -3 -4 3
2 5 -53 59 -122 119 -69 60 -168 148 -220 195 -228 208 -429 364 -620 484 -69
44 -127 80 -129 82 -16 14 95 114 127 114 9 0 67 -32 131 -72z m1014 20 c3
-18 9 -48 13 -65 6 -30 4 -33 -18 -33 -23 0 -71 -29 -91 -55 -17 -21 6 63 33
123 32 69 54 79 63 30z m1618 -18 c36 -19 58 -44 47 -55 -2 -2 -26 7 -53 20
-26 14 -56 25 -66 25 -20 0 -32 14 -22 24 12 12 54 6 94 -14z m-410 -105 c39
-28 52 -46 74 -104 16 -39 43 -87 62 -106 18 -19 33 -36 33 -39 0 -2 -15 -13
-34 -24 -26 -16 -34 -28 -40 -61 -11 -68 -75 -83 -76 -18 0 37 -50 137 -137
277 -49 80 -92 150 -95 155 -12 21 168 -47 213 -80z m401 46 c38 -19 59 -25
62 -18 2 7 5 -5 5 -26 l1 -38 -28 21 c-15 11 -50 23 -77 26 -73 8 -122 -12
-164 -66 l-34 -45 7 40 c8 44 39 77 90 93 27 9 28 10 8 11 -32 1 -86 -25 -122
-59 -33 -31 -38 -24 -16 19 43 82 155 100 268 42z m-1414 -62 c35 -12 83 -37
108 -55 24 -19 44 -31 44 -26 0 4 -12 27 -25 51 -31 54 -28 62 5 15 14 -21 25
-53 26 -79 l3 -43 -41 20 c-22 11 -57 22 -77 24 -28 4 -23 0 23 -15 79 -27 87
-37 40 -50 -22 -6 -50 -11 -64 -11 -14 0 -32 -5 -40 -10 -24 -15 36 -12 103 5
55 14 59 14 143 -14 47 -16 91 -34 96 -39 8 -8 -19 -53 -84 -144 -53 -73 -107
-144 -121 -157 -25 -23 -155 -72 -169 -64 -4 2 -49 52 -100 111 -51 59 -77 94
-59 79 18 -15 47 -35 65 -44 17 -9 52 -34 78 -55 27 -23 54 -38 65 -36 14 3 9
10 -25 32 -23 16 -41 30 -39 32 1 2 33 -6 71 -18 50 -15 73 -18 89 -10 21 9
21 10 -8 17 -73 17 -215 68 -264 95 -29 16 -57 27 -61 25 -13 -8 -59 80 -76
145 -25 97 -5 172 58 225 31 26 37 27 103 22 38 -4 98 -16 133 -28z m875 -99
c42 -76 82 -194 92 -266 l6 -51 -45 -12 c-25 -6 -46 -11 -48 -11 -2 0 -1 33 3
73 9 102 -8 208 -56 332 -15 38 12 2 48 -65z m293 54 c-4 -15 -2 -32 5 -40 9
-11 9 -18 1 -26 -9 -9 -12 -8 -12 6 0 9 -4 15 -8 12 -9 -6 -7 47 3 63 11 20
17 12 11 -15z m256 -5 c19 -10 32 -44 23 -59 -3 -5 -26 -10 -51 -10 -39 0 -47
4 -64 33 -32 52 -27 60 28 52 26 -4 55 -11 64 -16z m-146 -45 c-3 -9 -9 -40
-12 -70 -5 -38 -11 -54 -22 -54 -12 0 -14 9 -9 43 8 57 24 97 38 97 6 0 8 -7
5 -16z m253 -3 c13 -24 4 -32 -28 -24 -33 7 -33 7 -25 27 8 22 41 20 53 -3z
m-202 -24 c10 -7 6 -17 -13 -43 -36 -46 -47 -43 -39 9 11 62 14 64 52 34z
m173 -37 c8 -16 6 -30 -9 -65 -20 -45 -35 -56 -44 -32 -2 6 5 22 16 35 l20 22
-36 0 c-40 0 -42 2 -27 31 12 22 40 25 59 7 10 -11 11 -10 6 5 -10 24 2 22 15
-3z m-110 -19 c-7 -14 -7 -27 -1 -39 8 -15 1 -24 -40 -52 -48 -32 -50 -33 -69
-15 -11 10 -20 21 -20 26 0 4 22 21 49 38 26 17 56 40 66 51 22 24 31 19 15
-9z m177 13 c14 -38 -56 -184 -88 -184 -23 0 -18 31 12 75 21 31 32 60 33 86
0 30 5 39 19 39 10 0 20 -7 24 -16z m23 -174 c-11 -21 -27 -25 -47 -12 -8 5
-3 25 20 72 l32 65 3 -52 c2 -29 -2 -62 -8 -73z m-578 -13 c10 -32 9 -40 -3
-48 -24 -15 -26 -11 -32 59 -3 37 -8 76 -11 87 -4 11 3 2 14 -20 11 -22 25
-57 32 -78z m424 57 c-7 -24 -105 -89 -116 -78 -23 24 -13 44 40 82 45 32 58
37 69 27 7 -7 10 -21 7 -31z m-210 19 c17 -17 16 -18 -18 -28 -19 -5 -43 -16
-52 -24 -14 -12 -16 -10 -16 12 0 18 8 31 28 41 35 19 37 19 58 -1z m-819 -67
c27 -25 64 -71 81 -104 44 -83 67 -91 158 -57 38 14 114 33 169 41 118 18 149
25 233 58 34 13 62 20 62 15 0 -10 -162 -89 -235 -115 -21 -8 -60 -28 -85 -43
-104 -67 -171 -95 -223 -96 -69 0 -73 21 -5 27 60 6 208 66 253 103 l30 24
-50 -6 c-27 -3 -85 -17 -128 -30 -44 -13 -85 -22 -93 -19 -7 3 -16 1 -19 -5
-4 -5 -11 -7 -16 -3 -5 3 -7 10 -4 15 3 5 0 6 -8 3 -8 -3 -20 2 -27 11 -7 8
-17 15 -22 15 -6 0 -48 27 -94 60 -76 56 -82 63 -74 85 12 32 33 65 41 65 4 0
29 -20 56 -44z m1040 -44 c-13 -16 -84 -51 -104 -52 -29 0 -10 29 40 63 46 31
53 33 64 19 10 -12 10 -18 0 -30z m-227 8 c37 -39 56 -88 43 -108 -17 -28 -30
-24 -37 12 -4 20 -22 56 -41 81 -32 41 -33 45 -14 45 12 0 33 -13 49 -30z
m-24 -62 c8 -15 14 -37 13 -50 -1 -16 -4 -12 -11 14 -5 20 -26 56 -46 80 l-36
43 33 -30 c18 -16 39 -42 47 -57z m318 34 c-24 -21 -28 -22 -36 -8 -13 23 31
60 51 43 11 -9 8 -16 -15 -35z m-50 -34 c-16 -26 -154 -72 -154 -52 1 15 144
80 152 69 4 -5 4 -13 2 -17z m64 0 c-24 -36 -120 -80 -180 -84 l-53 -3 47 9
c54 9 122 41 164 76 36 29 40 30 22 2z m-2015 -66 c26 -25 47 -49 47 -52 0 -3
-10 -5 -22 -6 -13 0 -32 -4 -43 -8 -19 -7 -19 -7 -1 8 10 8 24 17 30 19 6 2 8
7 4 11 -3 4 -20 0 -37 -8 -16 -9 -36 -16 -43 -16 -7 1 5 10 27 22 l39 21 -29
23 c-17 13 -37 24 -46 24 -8 0 -24 7 -35 15 -17 13 -15 13 21 4 25 -7 58 -28
88 -57z m657 -50 c0 -12 -60 -82 -71 -82 -18 0 -8 25 23 57 31 32 48 41 48 25z
m27 -50 c-6 -51 -51 -122 -77 -122 -11 0 -20 7 -20 15 0 18 81 143 94 144 5 1
6 -16 3 -37z m-637 13 c0 -8 5 -15 10 -15 6 0 28 -12 50 -26 26 -17 40 -35 42
-52 2 -18 10 -28 23 -30 11 -2 25 -9 30 -14 7 -7 0 -9 -22 -5 -25 5 -33 2 -36
-11 -3 -9 -5 7 -6 37 -1 43 -4 52 -16 47 -8 -3 -26 6 -42 22 l-28 27 -5 -34
c-5 -31 -6 -33 -19 -17 -12 14 -12 22 -3 36 8 14 8 20 0 22 -6 2 -8 10 -4 16
10 17 26 15 26 -3z m-35 -25 c12 -19 -12 -10 -31 11 -19 22 -19 22 3 10 12 -6
25 -16 28 -21z m800 -21 c8 -13 -25 -51 -79 -90 -61 -45 -72 -35 -36 36 11 21
23 54 26 72 l6 32 38 -19 c21 -11 42 -25 45 -31z m726 28 c-6 -8 -9 -17 -6
-20 3 -4 2 -5 -1 -2 -4 2 -38 -18 -78 -44 -39 -26 -98 -63 -131 -83 -66 -38
-194 -92 -201 -85 -12 12 63 57 144 86 60 21 124 54 184 96 102 69 106 71 89
52z m37 -61 c-1 -1 -21 -10 -43 -20 -53 -24 -295 -187 -295 -199 0 -15 19 -4
140 83 136 97 180 119 239 120 42 0 48 -4 115 -73 39 -40 93 -91 120 -113 l48
-40 -16 -54 c-22 -72 -21 -82 14 -136 16 -26 36 -68 45 -93 20 -62 52 -221 60
-303 6 -62 5 -66 -12 -62 -17 5 -18 13 -15 69 4 57 -15 212 -24 202 -2 -2 1
-41 7 -86 6 -45 8 -102 4 -127 l-6 -44 -48 0 c-102 0 -242 -60 -279 -120 -15
-24 -29 -25 -83 -3 l-42 16 6 104 c4 87 9 113 31 155 15 28 21 47 14 41 -7 -5
-40 -10 -73 -11 -33 -1 -73 -4 -90 -7 l-30 -6 29 25 c36 30 171 76 223 76 28
0 34 3 23 10 -29 19 -142 11 -202 -14 -32 -13 -58 -20 -58 -16 0 4 27 33 60
64 140 133 294 153 440 56 48 -32 67 -32 29 0 -56 47 -132 75 -211 79 -69 3
-84 0 -142 -27 -35 -16 -81 -46 -103 -66 -67 -60 -62 -41 7 31 l65 66 -50 -34
c-27 -19 -78 -63 -112 -97 -35 -35 -69 -62 -77 -59 -15 6 -77 165 -100 257
-18 72 -34 115 -41 108 -16 -16 85 -319 127 -379 17 -25 17 -35 5 -160 -8 -81
-10 -166 -6 -214 4 -44 12 -197 18 -340 6 -143 13 -276 16 -296 6 -33 3 -39
-35 -72 -45 -38 -99 -57 -148 -49 -37 5 -115 70 -138 114 -26 50 -9 42 26 -12
18 -27 39 -50 47 -50 12 0 11 6 -5 33 -61 100 -202 525 -214 647 -5 45 -5 45
53 89 58 44 138 122 109 106 -8 -5 -48 -34 -88 -64 -59 -44 -75 -52 -83 -40
-5 8 -9 19 -9 26 0 6 -15 31 -34 56 -53 69 -54 74 -44 162 7 55 7 95 -1 128
-6 27 -11 76 -11 110 l0 62 167 59 c92 33 162 61 155 64 -6 2 -84 -22 -173
-52 -89 -31 -164 -54 -166 -52 -2 2 -1 10 2 18 9 22 60 42 222 87 228 64 323
107 511 233 90 61 114 70 125 51 5 -8 7 -15 5 -17z m-622 -51 c121 -73 121
-62 -5 -106 -82 -29 -91 -23 -25 17 78 47 82 52 51 59 -21 6 -39 -1 -79 -28
-81 -52 -95 -58 -149 -59 -89 -2 -91 31 -6 86 30 19 63 48 73 65 10 17 22 31
26 31 4 0 55 -29 114 -65z m-840 10 c-11 -24 -30 -22 -53 7 -9 10 -3 13 26 14
36 2 38 1 27 -21z m258 17 c7 -12 -114 -153 -125 -146 -17 10 -9 26 49 90 57
64 66 71 76 56z m306 -142 c29 -29 35 -40 23 -40 -30 0 -83 38 -83 60 0 30 15
25 60 -20z m-352 -59 c-5 -1 -18 5 -29 15 -18 16 -18 18 -2 36 17 19 18 19 29
-14 6 -19 7 -34 2 -37z m-100 27 c20 -20 14 -28 -23 -28 -38 0 -46 13 -17 29
22 13 26 13 40 -1z m297 -50 c39 -34 75 -68 82 -77 13 -16 18 -71 7 -71 -3 0
-35 31 -70 69 -35 38 -83 78 -106 90 -28 13 -36 21 -23 21 22 0 74 -29 116
-64 14 -11 -2 5 -35 37 -81 76 -58 73 29 -5z m131 31 c3 -6 -5 -3 -20 6 -14
10 -26 19 -26 22 0 7 39 -17 46 -28z m-211 -48 c17 -10 57 -48 89 -85 57 -65
58 -67 41 -86 -10 -11 -27 -20 -38 -20 -20 0 -20 15 -2 65 6 17 4 17 -14 -4
l-21 -24 -39 27 c-22 15 -41 36 -44 46 -3 10 -24 31 -48 45 -57 36 -56 35 -39
45 25 16 83 11 115 -9z m-256 0 c7 -5 10 -14 6 -20 -5 -9 -10 -9 -21 0 -12 10
-17 8 -29 -7 -10 -15 -16 -16 -26 -7 -30 30 30 59 70 34z m616 -11 c-28 -12
-65 -12 -65 0 0 6 19 10 43 9 32 0 37 -2 22 -9z m-546 -24 c9 -10 4 -25 -21
-65 -35 -54 -61 -63 -66 -23 -4 27 42 102 62 102 7 0 19 -6 25 -14z m97 -72
c-9 -13 -24 -36 -33 -51 -40 -66 -77 -90 -89 -59 -5 13 50 109 81 140 13 12
21 14 36 5 19 -10 19 -12 5 -35z m363 -76 c-1 -35 1 -95 6 -134 8 -71 0 -152
-13 -139 -4 4 -10 46 -14 93 -4 48 -10 110 -13 137 -7 51 6 105 25 105 6 0 10
-24 9 -62z m-299 32 c0 -15 -70 -110 -82 -110 -11 0 -11 0 26 68 26 46 56 69
56 42z m-5 -91 c-9 -17 -19 -29 -22 -26 -5 5 25 57 33 57 3 0 -3 -14 -11 -31z
m84 22 c19 -12 6 -41 -18 -41 -24 0 -33 13 -25 34 7 18 22 20 43 7z m1020
-266 c-11 -25 -23 -77 -26 -115 -7 -82 -7 -82 -81 24 l-53 75 27 17 c26 18
104 42 136 43 15 1 15 -3 -3 -44z m-29 -272 c0 -14 -7 -10 -30 17 -17 19 -39
51 -50 70 -19 31 -15 29 30 -17 27 -28 50 -60 50 -70z m533 104 c18 -8 38 -21
45 -29 9 -12 1 -10 -29 5 -34 17 -60 20 -133 20 -95 -1 -152 -16 -209 -54
l-32 -21 34 31 c19 17 53 37 75 45 53 19 206 20 249 3z m-692 -142 l3 -80 5
72 6 72 80 -106 c105 -138 100 -127 71 -166 -34 -45 -33 -60 10 -95 34 -28 35
-32 29 -75 -4 -27 -3 -53 5 -66 8 -17 6 -52 -10 -160 -24 -168 -26 -331 -4
-437 22 -105 15 -294 -16 -417 -20 -82 -21 -90 -6 -112 9 -14 21 -25 26 -25 6
0 10 -20 10 -44 0 -51 -8 -56 -83 -56 -43 0 -369 60 -417 76 -9 3 6 13 38 24
101 36 142 86 174 216 13 49 30 94 39 101 9 7 36 42 60 80 39 59 44 74 46 128
1 41 14 95 42 175 45 127 50 178 25 255 -26 82 -38 99 -74 111 -39 13 -43 20
-64 144 -12 68 -16 152 -15 309 1 205 13 251 20 76z m551 11 c5 -96 12 -121
29 -110 7 4 8 42 3 105 l-7 99 42 0 41 0 0 -116 c0 -74 4 -113 10 -109 6 3 10
52 10 111 0 105 0 105 23 98 55 -16 73 -72 61 -190 l-6 -61 -42 9 c-23 6 -124
8 -233 5 l-193 -5 0 49 c0 32 8 65 22 92 l22 42 7 -40 c4 -22 8 -57 8 -77 1
-20 6 -40 12 -44 7 -4 10 22 8 87 l-3 93 33 20 c40 23 46 16 55 -63 10 -85 17
-111 28 -111 7 0 9 37 6 105 l-4 105 32 0 31 0 5 -94z m-415 14 c43 -48 53
-56 58 -41 3 10 1 30 -5 45 -5 15 -10 29 -10 30 0 2 18 -5 40 -16 22 -11 40
-22 40 -25 0 -3 -11 -26 -24 -52 -13 -25 -27 -54 -30 -63 -3 -11 -11 -15 -21
-12 -9 4 -14 8 -11 11 2 2 -6 15 -19 29 -20 22 -85 134 -85 148 0 15 19 0 67
-54z m109 -235 c-1 -95 -3 -112 -13 -98 -16 21 -17 95 -2 163 6 27 12 50 14
50 1 0 2 -52 1 -115z m489 26 c21 -4 30 -12 30 -26 0 -17 -8 -20 -50 -23 -60
-4 -426 16 -433 23 -11 11 12 20 66 26 76 8 349 8 387 0z m33 -93 c-3 -7 -20
-16 -39 -21 -43 -12 -304 -2 -389 15 l-65 13 50 5 c97 10 447 0 443 -12z m-4
-57 c12 -19 -8 -41 -48 -52 -64 -18 -381 3 -404 26 -15 15 23 20 136 18 101
-2 259 6 304 16 4 0 9 -3 12 -8z m-527 -83 c-2 -13 -4 -3 -4 22 0 25 2 35 4
23 2 -13 2 -33 0 -45z m366 -3 c132 1 147 -1 147 -16 0 -10 -8 -25 -17 -35
-15 -15 -35 -16 -172 -11 -86 3 -172 10 -191 15 -19 6 -47 13 -62 16 -20 5
-28 13 -28 27 0 20 3 21 88 12 48 -4 153 -8 235 -8z m-1037 -117 c-1 -52 -1
-53 44 -78 25 -14 65 -40 89 -58 63 -46 110 -58 164 -43 46 14 101 51 132 90
62 78 62 78 83 56 19 -20 56 -114 48 -123 -3 -2 -14 16 -27 40 -37 74 -35 74
-110 4 -105 -99 -190 -112 -292 -43 -29 19 -73 45 -98 57 -51 26 -59 35 -59
72 0 26 16 78 24 78 2 0 3 -23 2 -52z m441 -25 c-2 -16 -4 -5 -4 22 0 28 2 40
4 28 2 -13 2 -35 0 -50z m280 35 c-11 -46 -28 -279 -36 -498 l-8 -225 -1 180
c-1 188 12 477 24 533 3 17 11 32 16 32 6 0 8 -10 5 -22z m74 -273 c-6 -104
-18 -275 -26 -379 -15 -178 -15 -209 2 -193 19 19 73 578 73 753 l0 104 35 0
c34 0 35 -1 35 -40 0 -34 -43 -473 -69 -710 -8 -68 -2 -104 15 -88 9 9 74 578
81 711 l6 117 34 0 c32 0 33 -1 33 -44 0 -48 -49 -426 -80 -623 -22 -132 -25
-199 -11 -173 18 31 101 569 116 758 l7 82 29 0 30 0 -7 -67 c-5 -65 -51 -349
-94 -588 -11 -60 -20 -145 -20 -189 l0 -78 -35 31 c-73 63 -164 33 -229 -76
-13 -22 26 -2 67 34 47 41 96 44 148 9 33 -23 69 -78 69 -105 0 -6 7 -11 15
-11 12 0 14 8 8 43 -17 94 -6 259 35 512 36 220 62 418 62 476 0 11 7 19 16
19 14 0 15 -10 9 -77 -7 -75 -36 -256 -91 -563 -21 -120 -25 -164 -20 -255 3
-60 8 -123 12 -139 7 -29 7 -29 -31 -23 -26 4 -52 19 -80 47 -62 61 -96 58
-269 -26 -35 -17 -48 -10 -37 19 4 12 13 65 20 117 18 151 19 152 14 13 -4
-88 -2 -133 4 -133 6 0 13 15 17 33 9 49 34 326 51 567 17 240 34 400 43 415
17 27 23 -105 13 -280z m-561 -27 c0 -11 -17 -10 -43 3 -26 13 -117 100 -117
111 0 4 36 -18 80 -49 44 -31 80 -60 80 -65z m288 61 c-71 -128 -249 -158
-372 -64 -19 14 -37 34 -41 43 -3 9 11 0 33 -21 60 -58 157 -81 243 -57 42 12
114 71 135 111 8 16 17 29 20 29 3 0 -5 -19 -18 -41z m-505 6 c4 -8 2 -17 -3
-20 -6 -4 -10 3 -10 14 0 25 6 27 13 6z m634 -62 c-2 -16 -4 -3 -4 27 0 30 2
43 4 28 2 -16 2 -40 0 -55z m-107 0 c-11 -17 -11 -17 -6 0 3 10 6 24 7 30 0 9
2 9 5 0 3 -7 0 -20 -6 -30z m-449 -5 c11 -21 11 -22 -4 -9 -10 7 -17 17 -17
22 0 15 9 10 21 -13z m2 -210 c6 -21 3 -30 -13 -38 -20 -11 -30 3 -10 15 18
11 11 41 -25 109 -19 37 -35 75 -35 84 0 19 74 -131 83 -170z m34 67 l35 -50
-37 40 c-34 38 -75 105 -75 122 0 4 10 -8 21 -27 12 -19 37 -57 56 -85z m393
102 c0 -2 -10 -12 -22 -23 l-23 -19 19 23 c18 21 26 27 26 19z m-73 -133 c-6
-62 -5 -105 1 -118 7 -15 6 -31 -3 -51 -12 -30 -12 -29 -19 28 -6 48 5 176 20
225 9 30 9 6 1 -84z m-41 57 c-9 -13 -90 -23 -122 -14 -24 7 -17 9 41 14 39 3
74 6 78 7 5 1 6 -2 3 -7z m65 -168 c-10 -17 -10 -16 -11 3 0 23 13 41 18 25 2
-6 -1 -18 -7 -28z m-106 -137 c6 -14 5 -18 -6 -14 -10 3 -14 25 -15 84 l-1 79
7 -65 c3 -36 10 -73 15 -84z m-266 51 c-12 -31 -19 -63 -15 -72 8 -22 109 -65
154 -65 20 0 52 4 70 9 38 11 40 5 16 -80 -20 -71 -69 -131 -126 -154 -40 -16
-43 -16 -55 1 -7 10 -13 41 -13 70 l0 51 -60 12 c-33 7 -62 16 -65 21 -12 19
97 281 112 267 2 -2 -6 -29 -18 -60z m-65 -258 c15 -12 38 -43 51 -69 13 -26
30 -50 37 -53 7 -3 0 -6 -15 -6 -60 -2 -117 59 -117 123 0 31 9 33 44 5z m776
-85 c0 -4 -8 -13 -17 -20 -16 -12 -14 -13 21 -14 33 0 37 -2 25 -12 -8 -7 -25
-26 -39 -42 l-25 -29 47 27 c37 22 51 25 67 17 30 -16 33 -13 15 14 -14 22
-15 25 -1 25 13 0 57 -48 57 -63 0 -2 -20 -2 -45 1 -53 5 -120 -17 -166 -55
-24 -20 -32 -23 -44 -13 -8 7 -15 17 -15 22 0 20 92 148 106 148 8 0 14 -3 14
-6z m53 -11 c-7 -2 -21 -2 -30 0 -10 3 -4 5 12 5 17 0 24 -2 18 -5z m107 -126
c45 -33 70 -63 70 -84 0 -20 -5 -23 -37 -22 -21 1 -51 4 -68 8 -18 4 -50 1
-77 -8 -65 -20 -123 -7 -123 29 0 28 63 77 116 90 39 10 97 3 119 -13z m-275
-79 c7 -7 2 -8 -15 -3 -14 4 -29 12 -35 17 -7 7 -2 8 15 3 14 -4 30 -12 35
-17z m197 -53 c94 0 147 -4 145 -10 -5 -23 -284 -13 -314 12 -17 14 -17 14 2
6 11 -4 86 -8 167 -8z"/>
<path d="M2910 4337 c0 -5 5 -18 12 -30 6 -12 17 -58 24 -102 12 -80 12 -80
13 -25 1 62 -12 116 -34 145 -8 11 -15 16 -15 12z"/>
<path d="M2901 4274 c0 -11 3 -14 6 -6 3 7 2 16 -1 19 -3 4 -6 -2 -5 -13z"/>
<path d="M2912 4214 c-1 -23 -5 -57 -8 -75 -4 -28 -3 -31 6 -16 6 9 9 43 7 75
-2 44 -4 48 -5 16z"/>
<path d="M2562 4133 c3 -22 18 -64 32 -93 17 -34 24 -60 20 -73 -5 -16 7 -10
47 23 29 25 56 46 61 46 4 1 13 2 18 3 34 4 -36 78 -95 100 -27 10 -59 22 -69
26 -17 8 -19 5 -14 -32z m118 -27 c0 -11 -62 -68 -68 -62 -4 4 1 12 11 17 9 6
17 15 17 21 0 9 -3 9 -12 0 -20 -20 -32 -13 -13 8 15 17 65 29 65 16z m35 -48
c-11 -6 -32 -22 -47 -36 -22 -20 -28 -22 -28 -10 0 22 47 58 74 58 21 -1 21
-1 1 -12z"/>
<path d="M2830 3863 c0 -21 -10 -76 -21 -123 -12 -47 -25 -100 -29 -117 -4
-18 -4 -33 0 -33 13 0 51 158 57 236 3 41 3 74 -1 74 -3 0 -6 -17 -6 -37z"/>
<path d="M2961 3674 c0 -11 3 -14 6 -6 3 7 2 16 -1 19 -3 4 -6 -2 -5 -13z"/>
<path d="M3320 3965 c-7 -9 -11 -17 -9 -20 3 -2 10 5 17 15 14 24 10 26 -8 5z"/>
<path d="M1941 3943 c-1 -6 -4 -20 -7 -30 -5 -17 -5 -17 6 0 6 10 9 23 6 30
-3 9 -5 9 -5 0z"/>
<path d="M2153 3623 c15 -2 39 -2 55 0 15 2 2 4 -28 4 -30 0 -43 -2 -27 -4z"/>
<path d="M1910 3615 c0 -20 39 -73 74 -100 80 -61 200 -81 296 -50 l45 14 -55
-7 c-163 -21 -277 20 -341 123 -11 17 -19 26 -19 20z"/>
<path d="M2280 3589 c-46 -18 -62 -28 -41 -24 33 5 146 53 126 53 -5 0 -44
-13 -85 -29z"/>
<path d="M2315 3539 c-16 -5 -61 -14 -100 -19 l-70 -9 80 3 c50 2 91 9 110 19
33 18 26 20 -20 6z"/>
<path d="M3118 3003 c-17 -19 -51 -83 -45 -83 2 0 18 23 35 50 33 52 35 62 10
33z"/>
<path d="M3132 2843 c-42 -60 -43 -77 -3 -33 22 25 40 48 41 53 1 16 -20 5
-38 -20z"/>
<path d="M3308 2616 c-72 -15 -91 -32 -23 -20 28 5 82 9 122 9 39 0 66 3 60 6
-27 14 -106 17 -159 5z"/>
<path d="M3758 2059 c2 -60 7 -109 13 -109 14 0 11 196 -3 208 -10 8 -12 -12
-10 -99z"/>
<path d="M2665 771 c6 -11 92 -36 150 -44 38 -6 39 -5 15 8 -25 13 -137 45
-160 45 -6 0 -9 -4 -5 -9z"/>
<path d="M2650 721 c0 -14 41 -30 97 -38 54 -7 59 12 6 26 -80 20 -103 23
-103 12z"/>
<path d="M1181 1674 c-55 -70 11 -160 94 -128 14 6 11 12 -18 43 -34 36 -53
71 -39 71 4 0 15 -12 24 -28 9 -15 25 -36 36 -46 20 -17 21 -17 32 4 41 76
-76 151 -129 84z"/>
</g>
</svg>